<svg viewBox="-72 10 362 200" version="1.1">
              <path d="M 88.9271,169.291 88.9271,171.54231 82.73591,171.54231 82.73591,172.38668 71.61991,172.38668 71.61991,174.63799 53.32781,174.63799 53.32781,180.96992 22.79401,180.96992 22.79401,199.68422 8.58231,199.68422 8.58231,193.63376 3.93896,193.63376 3.93896,189.97534 -8.72484,189.97534 -8.72484,184.06543 -24.90644,184.06543 -24.90644,189.97534 -33.91185,189.97534 -33.91185,172.52744 -75.43985,172.52744 -75.43985,214.49414 -68.80571,214.49414 -33.91191,214.49414 -22.51441,214.49414 -15.47884,214.49414 372.42816,214.49414 372.42816,210.09664 372.45526,210.09664 372.45526,180.54774 317.57866,180.54774 317.57866,183.78398 305.05556,183.78398 305.05556,191.24155 285.21556,191.24155 285.21556,202.77975 267.48636,202.77975 267.48636,192.78941 218.66026,192.78941 218.66026,202.21701 208.52916,202.21701 208.52916,191.80451 195.72476,191.80451 195.72476,182.09562 181.79456,182.09562 181.79456,191.80451 164.34666,191.80451 164.34666,184.90985 132.82796,184.90985 132.82796,180.68851 97.65066,180.68851 97.65066,171.54236 91.74093,171.54236 91.74093,169.29105 88.9267,169.29105 Z"></path>
            </svg>