
            <svg viewBox="-72 10 362 200" version="1.1">
              <path d="M 3.47036,35.3261 C 0.35093715,35.74466 -2.7934288,37.554263 -5.742942,39.416136 -9.7670273,41.656985 -14.682685,41.810612 -19.104518,43.355952 -20.640701,40.752462 -24.219143,41.722432 -26.27744,40.11971 -29.346916,41.051419 -31.45335,43.588098 -35.700994,42.371027 -40.235439,44.186095 -46.713504,43.853531 -51.312524,42.51175 -52.55866,40.143607 -56.596951,40.353648 -59.329128,39.557574 -64.733731,37.436066 -65.100708,40.836604 -69.737273,41.526848 -72.737614,39.987961 -75.927447,36.941626 -74.940664,43.49672 -76.404332,57.731567 -74.490424,71.162275 -75.081377,85.580691 -75.125328,128.51399 -75.08785,171.52872 -75.100307,214.49351 74.085025,214.49351 223.27036,214.49351 372.45569,214.49351 372.45569,172.36284 372.45569,130.23218 372.45569,88.101509 365.47323,87.221817 357.52302,89.963701 351.21805,86.553673 348.18528,83.941632 342.85672,80.822393 340.38821,79.659007 339.66506,73.469105 328.12535,73.845288 323.51064,70.372124 315.54777,66.048163 306.69945,62.965887 297.63233,63.75894 289.74152,59.598262 280.46145,55.820218 272.17555,61.36673 262.65572,64.547689 252.12666,63.022121 243.20245,59.537604 232.81568,57.832402 222.36154,55.17022 211.83831,56.582647 197.02497,56.92568 183.34582,49.995782 168.80063,48.98434 163.72288,48.629735 156.95158,46.386579 152.90762,50.532177 149.72707,50.298645 146.39383,53.807296 144.46865,53.346406 142.17101,48.494166 135.20261,54.109156 131.38854,50.672911 124.17149,47.207776 117.01162,52.638904 109.30704,51.517113 101.92913,49.996135 94.356907,48.403199 87.506838,44.763178 81.609456,43.159861 76.385508,39.457599 69.785376,40.68253 63.836477,39.011549 59.59187,42.969588 53.751814,42.793288 49.275952,45.335657 42.22924,46.754983 37.718098,44.481684 29.620146,42.897438 20.418873,43.162129 12.823567,38.571946 9.424041,37.687453 7.2482638,35.307103 3.47036,35.3261 Z M -69.73794,41.52066 C -70.369607,62.909639 -71.001273,84.298618 -71.63294,105.6876 -71.001273,84.298618 -70.369607,62.909639 -69.73794,41.52066 Z"></path>
            </svg>