
            <svg viewBox="-72 10 362 200" version="1.1">
              <path d="M -20.6077,56.4309 C -30.041005,56.067824 -38.734714,60.024301 -48.269682,58.834049 -52.223466,62.037685 -56.825511,58.672033 -61.559401,59.959703 -70.74811,59.247439 -79.927393,61.758388 -75.127165,73.467726 -75.165695,120.04022 -75.137559,167.55588 -75.146048,214.49342 74.048163,214.48089 223.29251,214.51849 372.45539,214.47462 372.35743,167.66243 372.65067,120.45903 372.31025,73.889295 368.19674,71.585098 360.3997,75.076307 356.98335,74.170999 350.62068,69.898712 342.01825,73.180428 334.76613,70.794035 329.31764,72.355962 323.96633,71.705704 318.45472,70.512583 308.74541,67.94825 298.91642,66.145667 288.92554,67.698359 279.70443,69.379684 269.82723,70.015403 260.66191,70.371858 261.08285,77.853591 255.29503,77.529488 248.96227,76.985231 216.44497,76.985231 183.92768,76.985231 151.41038,76.985231 143.85065,71.792706 135.52181,64.050538 126.23395,66.150652 120.46222,68.440227 106.94902,67.848181 104.8604,70.934864 103.7273,72.58016 95.659154,71.166881 91.982156,71.638336 61.308538,71.638336 30.63492,71.638336 -0.038698,71.638336 -3.8589923,64.838669 -12.024065,62.325542 -17.756126,57.848766 L -20.427846,56.441656 -20.607774,56.430716 -20.6077,56.4309 Z M 104.3253,69.9268 C 104.69024,69.715611 102.42434,70.191923 104.3253,69.9268 Z M 104.3343,69.9214 104.3565,69.922012 104.3343,69.9214 Z M 129.4387,65.61131 130.049,65.466914 129.4387,65.61131 Z"></path>
            </svg>