<?xml version="1.0" standalone="no"?>
<!DOCTYPE svg PUBLIC "-//W3C//DTD SVG 20010904//EN"
 "http://www.w3.org/TR/2001/REC-SVG-20010904/DTD/svg10.dtd">
<svg version="1.0" xmlns="http://www.w3.org/2000/svg"
 width="2915.000000pt" height="2915.000000pt" viewBox="0 0 2915.000000 2915.000000"
 preserveAspectRatio="xMidYMid meet">
<metadata>
Created by potrace 1.14, written by Peter Selinger 2001-2017
</metadata>
<g transform="translate(0.000000,2915.000000) scale(0.100000,-0.100000)"
fill="#000000" stroke="none">
<path d="M14855 29134 c-156 -27 -298 -85 -435 -177 -71 -48 -241 -208 -288
-272 -12 -16 -37 -50 -55 -75 -125 -170 -252 -433 -345 -715 -35 -106 -87
-283 -97 -333 -2 -9 -12 -55 -23 -102 -23 -94 -51 -224 -58 -267 -2 -15 -7
-39 -9 -53 -8 -40 -12 -62 -19 -113 -4 -27 -9 -57 -11 -66 -2 -10 -6 -42 -10
-71 -4 -29 -8 -62 -11 -73 -2 -11 -6 -41 -9 -66 -3 -25 -7 -57 -9 -71 -3 -14
-7 -56 -11 -95 -3 -38 -8 -79 -10 -90 -2 -11 -7 -54 -10 -95 -3 -41 -7 -97
-10 -125 -8 -80 -14 -152 -21 -280 -3 -66 -8 -136 -10 -155 -24 -248 -24
-1517 1 -1955 2 -38 7 -133 10 -210 3 -77 8 -169 10 -205 2 -36 6 -110 9 -165
3 -55 8 -129 10 -165 3 -36 8 -105 11 -155 6 -101 12 -184 20 -282 4 -38 8
-95 10 -128 2 -33 7 -85 10 -115 11 -117 15 -167 20 -235 3 -38 7 -90 10 -115
2 -25 7 -67 10 -95 2 -27 7 -81 10 -120 3 -38 7 -83 9 -100 14 -134 20 -197
30 -305 4 -41 9 -92 12 -112 10 -90 13 -117 19 -178 4 -36 8 -76 10 -90 2 -14
7 -52 10 -85 11 -113 15 -150 20 -185 3 -19 7 -57 10 -85 3 -27 7 -63 9 -80 2
-16 7 -59 11 -95 3 -36 8 -76 10 -90 2 -14 7 -50 10 -80 3 -30 12 -104 20
-165 8 -60 17 -132 21 -160 3 -27 7 -61 9 -75 2 -14 7 -50 10 -80 3 -30 7 -66
10 -80 2 -14 7 -50 10 -80 4 -30 8 -66 10 -80 2 -14 6 -43 9 -65 10 -78 27
-205 31 -232 2 -16 6 -50 10 -78 3 -27 8 -61 11 -75 2 -14 7 -47 10 -75 2 -27
6 -60 8 -71 3 -12 8 -48 11 -80 4 -33 9 -67 11 -78 2 -10 6 -44 10 -75 3 -31
8 -65 10 -76 2 -11 7 -40 10 -65 3 -25 7 -56 9 -70 2 -14 7 -50 10 -80 4 -30
9 -64 11 -74 4 -21 24 -164 29 -206 2 -14 6 -41 8 -60 3 -19 8 -62 12 -95 4
-33 9 -69 11 -79 2 -11 11 -76 19 -145 9 -69 18 -137 21 -151 2 -14 7 -52 10
-85 3 -33 7 -64 7 -70 1 -6 -50 -10 -138 -9 -246 3 -967 22 -971 27 -4 4 -13
82 -19 162 -6 85 -12 154 -21 260 -4 44 -8 94 -9 110 -3 39 -16 180 -20 225
-2 19 -7 69 -10 110 -3 41 -8 89 -9 105 -4 29 -10 97 -22 215 -7 71 -13 136
-19 180 -2 19 -7 64 -10 100 -3 36 -7 75 -9 85 -2 11 -7 60 -11 110 -4 49 -8
92 -10 95 -1 3 -6 37 -9 76 -4 39 -8 80 -10 91 -2 10 -7 50 -11 88 -3 39 -8
84 -11 100 -6 44 -13 103 -19 165 -4 30 -8 66 -10 80 -3 14 -7 50 -10 80 -4
30 -8 66 -10 80 -2 14 -6 43 -9 65 -3 22 -12 91 -21 153 -8 63 -17 135 -20
160 -3 26 -8 58 -10 72 -6 35 -12 73 -24 160 -13 97 -19 135 -36 245 -8 50
-17 110 -20 135 -5 40 -109 666 -119 715 -6 30 -35 186 -40 217 -2 15 -12 63
-20 105 -9 43 -17 89 -20 103 -7 42 -35 176 -77 375 -23 104 -42 196 -44 205
-2 8 -11 47 -20 85 -9 39 -18 77 -20 85 -22 101 -59 255 -81 335 -14 55 -30
116 -34 135 -29 121 -110 410 -164 580 -26 80 -48 152 -50 162 -7 25 -91 272
-129 378 -86 234 -140 370 -240 595 -40 90 -183 369 -242 470 -236 410 -524
727 -786 869 -70 38 -224 98 -232 90 -2 -3 -17 0 -33 6 -45 18 -201 14 -259
-5 -239 -82 -436 -260 -562 -510 -85 -169 -156 -417 -177 -625 -3 -25 -7 -61
-10 -80 -17 -116 -24 -552 -11 -705 3 -33 7 -92 10 -131 2 -39 7 -93 10 -120
3 -27 8 -71 11 -99 6 -56 33 -276 39 -315 2 -14 7 -45 11 -70 4 -25 8 -54 10
-65 2 -18 39 -224 48 -270 2 -11 7 -40 12 -65 4 -25 8 -47 9 -50 6 -29 18 -90
22 -110 5 -32 51 -243 63 -295 47 -200 112 -467 120 -495 5 -19 23 -87 40
-150 16 -63 34 -131 40 -150 5 -19 23 -84 40 -145 17 -60 35 -121 40 -135 6
-14 11 -34 13 -45 2 -11 7 -27 10 -35 3 -8 7 -24 10 -35 4 -18 64 -220 86
-290 69 -220 124 -392 173 -540 33 -99 61 -187 63 -195 10 -38 265 -769 286
-819 6 -13 30 -81 55 -150 24 -69 51 -144 60 -166 8 -22 42 -112 75 -200 86
-226 166 -435 180 -470 7 -16 13 -32 13 -35 1 -3 16 -43 35 -90 19 -47 83
-209 142 -360 60 -151 115 -288 123 -305 8 -16 32 -75 55 -130 22 -55 74 -183
115 -283 l76 -184 -98 7 c-53 3 -124 8 -157 10 -166 12 -547 31 -825 41 -142
5 -907 6 -964 1 -24 -2 -30 -7 -32 -27 0 -14 -4 -79 -8 -145 -4 -66 -9 -147
-11 -180 -6 -84 -13 -193 -20 -310 -3 -55 -8 -125 -10 -155 -3 -30 -7 -98 -10
-150 -3 -52 -8 -126 -10 -165 -3 -38 -7 -110 -10 -160 -3 -49 -7 -121 -10
-160 -3 -38 -7 -110 -10 -160 -3 -49 -8 -115 -10 -145 -2 -30 -7 -104 -10
-165 -4 -60 -8 -130 -10 -155 -2 -25 -7 -97 -10 -160 -3 -63 -8 -122 -11 -130
-3 -8 -28 -33 -56 -55 -28 -22 -56 -44 -62 -50 -6 -5 -40 -35 -76 -65 -36 -30
-67 -57 -70 -60 -3 -3 -45 -41 -95 -85 -49 -44 -99 -89 -111 -100 -308 -299
-410 -404 -553 -565 -46 -52 -100 -113 -120 -135 -20 -22 -65 -76 -101 -120
-35 -44 -67 -82 -70 -85 -9 -8 -139 -177 -201 -260 -180 -243 -297 -416 -442
-652 -101 -164 -113 -184 -173 -295 -20 -37 -40 -72 -44 -78 -17 -22 -201
-388 -260 -515 -56 -121 -72 -157 -100 -225 -5 -11 -22 -51 -39 -90 -16 -38
-48 -119 -71 -180 -43 -114 -49 -129 -70 -180 -7 -16 -43 -122 -80 -235 -107
-322 -226 -770 -265 -992 -4 -18 -10 -51 -15 -73 -12 -53 -57 -317 -66 -380
-3 -27 -8 -57 -9 -65 -2 -9 -6 -43 -10 -75 -4 -33 -9 -68 -11 -77 -1 -9 -5
-48 -9 -85 -3 -37 -8 -79 -10 -93 -3 -14 -7 -61 -11 -105 -3 -44 -8 -97 -10
-118 -25 -265 -25 -1027 1 -1297 2 -19 6 -71 10 -115 9 -110 12 -144 19 -190
3 -22 10 -83 16 -135 6 -52 18 -133 25 -180 8 -47 17 -105 20 -130 19 -135 87
-460 141 -675 14 -55 27 -109 30 -120 8 -44 88 -314 142 -480 8 -27 16 -52 17
-55 1 -3 7 -18 13 -33 7 -16 12 -32 12 -36 0 -14 138 -379 192 -506 281 -672
622 -1269 1057 -1855 47 -63 88 -117 92 -120 3 -3 30 -36 59 -75 58 -76 180
-223 244 -296 23 -25 67 -75 99 -111 154 -175 452 -474 648 -650 14 -13 43
-39 65 -59 32 -29 265 -225 327 -275 177 -143 454 -343 676 -489 134 -88 437
-275 446 -275 1 0 47 -25 101 -56 150 -85 507 -263 709 -352 336 -149 728
-293 1055 -387 85 -25 169 -49 185 -54 44 -14 298 -77 385 -96 202 -43 272
-57 348 -70 160 -29 248 -44 292 -49 25 -4 56 -8 70 -10 26 -5 242 -31 340
-41 30 -4 84 -8 120 -11 36 -2 83 -6 104 -9 225 -26 1055 -26 1326 0 19 2 73
6 120 10 47 3 96 8 110 10 14 2 57 7 95 10 39 4 77 8 85 11 8 2 42 6 75 9 33
3 67 8 75 10 8 2 35 7 60 10 46 6 210 31 265 41 17 3 86 16 155 30 69 14 136
28 150 31 26 4 230 52 340 79 36 9 76 20 90 25 14 5 34 11 45 13 39 8 243 68
395 118 454 148 861 318 1285 536 137 70 220 115 385 209 356 203 840 538
1170 811 36 30 76 63 90 75 14 11 43 36 66 56 22 20 71 63 109 96 285 248 637
614 926 960 145 174 391 501 473 630 11 16 23 34 28 40 36 40 299 466 381 615
19 36 49 90 66 120 55 98 247 492 296 605 26 61 55 128 65 150 35 77 185 468
195 505 2 8 27 85 55 170 88 267 150 497 225 830 25 112 68 345 85 455 11 77
23 151 25 165 15 98 17 117 39 320 5 39 9 93 21 240 27 338 27 1135 0 1310 -2
14 -7 61 -10 105 -6 84 -9 116 -26 255 -10 87 -36 275 -45 320 -2 14 -6 43 -9
65 -3 22 -9 60 -14 85 -6 25 -15 77 -22 115 -7 39 -30 149 -51 245 -22 96 -41
183 -43 192 -42 193 -223 788 -284 933 -5 11 -32 81 -61 155 -28 74 -72 182
-97 240 -44 102 -54 125 -123 275 -54 119 -178 361 -257 504 -42 75 -81 145
-87 156 -25 46 -191 317 -244 397 -206 315 -438 625 -681 908 -248 288 -429
474 -795 815 -51 48 -277 238 -390 328 l-138 111 6 75 c4 42 13 132 21 201 8
69 17 148 19 175 3 28 8 66 10 85 3 19 8 62 11 95 3 33 8 76 10 95 3 19 7 58
10 85 6 57 16 148 20 185 1 14 6 54 9 90 4 36 9 81 11 100 2 19 7 60 10 90 3
30 8 71 10 90 2 19 7 60 10 90 3 30 7 71 10 90 2 19 6 58 9 85 12 113 17 162
21 195 3 19 8 62 11 95 3 33 7 71 9 85 2 14 6 59 10 100 4 41 9 79 12 83 3 5
-21 6 -53 3 -178 -18 -282 -21 -604 -19 -1031 6 -1250 8 -1250 14 0 3 4 9 8
15 5 5 28 61 51 124 23 63 46 124 52 135 5 11 31 81 59 155 28 74 55 144 60
155 5 11 41 108 80 215 89 245 109 297 125 335 7 17 16 41 19 55 4 14 13 41
21 60 7 19 25 68 39 108 14 39 37 102 50 140 25 69 78 219 141 402 20 58 39
112 42 120 3 8 7 20 9 25 1 6 37 111 79 235 139 411 315 974 439 1410 31 107
65 227 76 265 11 39 22 79 25 90 2 11 27 106 55 210 28 105 52 197 54 206 3 9
20 81 39 160 20 79 38 155 41 169 3 14 18 84 35 157 17 72 32 142 35 155 3 12
12 55 21 93 8 39 25 117 36 175 12 58 23 114 25 125 2 11 7 36 10 55 21 112
34 183 38 206 2 12 7 39 10 60 4 22 15 91 26 154 10 63 21 133 24 155 7 49 15
119 21 165 2 19 9 71 15 115 13 101 18 152 25 240 3 39 8 84 10 101 25 179 25
934 0 1059 -2 11 -7 45 -10 75 -3 30 -7 66 -10 80 -2 14 -7 42 -9 64 -3 21 -8
46 -10 55 -3 9 -7 27 -10 41 -88 496 -352 882 -658 959 -88 22 -240 22 -350
-2 -52 -11 -209 -71 -262 -101 -230 -129 -448 -365 -633 -686 -112 -195 -228
-447 -313 -680 -23 -63 -48 -131 -55 -150 -31 -81 -170 -540 -190 -630 -2 -8
-22 -89 -44 -180 -23 -91 -43 -174 -45 -185 -4 -19 -34 -153 -41 -185 -6 -25
-44 -214 -49 -240 -2 -14 -14 -72 -25 -130 -11 -58 -22 -118 -25 -135 -2 -16
-16 -97 -31 -180 -14 -82 -28 -165 -30 -182 -10 -68 -15 -99 -19 -119 -2 -12
-7 -45 -11 -74 -4 -29 -8 -61 -10 -70 -2 -9 -7 -41 -10 -71 -4 -30 -9 -63 -10
-74 -2 -11 -6 -38 -9 -60 -3 -22 -8 -58 -11 -80 -2 -22 -7 -56 -9 -75 -3 -19
-10 -73 -16 -120 -5 -47 -12 -101 -15 -120 -2 -19 -6 -60 -10 -90 -3 -30 -7
-66 -10 -80 -2 -14 -7 -54 -10 -90 -3 -36 -8 -76 -10 -90 -2 -14 -7 -57 -10
-95 -3 -39 -8 -84 -10 -100 -2 -17 -6 -61 -9 -100 -4 -38 -9 -92 -12 -120 -11
-121 -13 -144 -19 -220 -4 -44 -8 -91 -10 -105 -2 -14 -6 -65 -10 -115 -6 -88
-9 -137 -20 -280 -9 -123 -16 -218 -20 -295 -3 -41 -7 -113 -10 -160 -17 -254
-40 -754 -50 -1070 -4 -102 -8 -237 -11 -300 -2 -63 -7 -387 -10 -720 -4 -333
-8 -607 -9 -608 -2 -2 -54 -6 -117 -8 -62 -3 -153 -7 -203 -9 -76 -4 -278 -8
-823 -18 -71 -2 -92 1 -92 11 0 8 9 48 19 90 11 43 22 88 25 102 3 14 17 75
31 135 15 61 28 118 30 128 2 10 7 28 11 39 3 11 7 30 9 41 3 19 22 105 96
427 31 137 79 362 85 400 3 19 8 38 11 43 2 4 7 20 9 35 3 15 16 79 29 142 13
63 26 126 29 140 2 14 21 102 40 195 19 94 38 184 40 200 3 17 8 41 11 55 22
110 45 229 49 250 2 14 11 57 19 95 8 39 18 89 21 112 3 22 8 52 10 65 3 12 8
37 11 53 3 17 16 91 30 165 13 74 27 151 30 170 3 19 8 42 10 50 2 8 6 33 10
55 3 22 10 65 15 95 16 89 35 198 44 260 3 19 8 46 10 60 3 14 7 43 11 65 3
22 10 65 15 95 12 74 20 128 26 170 2 19 9 60 14 90 5 30 12 78 15 105 4 28 8
61 11 75 5 29 12 77 18 123 31 226 51 373 61 460 8 64 15 116 20 155 3 20 9
80 15 132 6 52 13 113 15 135 3 22 7 63 10 90 3 28 8 68 10 90 3 22 7 65 10
95 3 30 7 78 10 105 14 144 22 236 30 340 3 44 8 103 10 130 14 177 16 209 30
465 15 272 20 478 20 900 -1 426 -5 612 -20 820 -2 30 -6 93 -9 139 -3 46 -8
102 -10 125 -3 23 -8 70 -11 106 -3 36 -8 74 -10 85 -2 11 -7 53 -10 94 -3 41
-7 77 -9 80 -2 3 -7 35 -10 70 -4 35 -8 67 -10 70 -2 3 -6 29 -10 56 -3 28 -8
64 -11 80 -50 291 -108 543 -179 775 -15 47 -28 92 -30 100 -25 93 -138 367
-214 515 -194 380 -422 649 -697 821 -243 152 -484 209 -720 168z"/>
</g>
</svg>
